<svg width="5120" height="2880" viewBox="0 0 5120 2880" fill="none" xmlns="http://www.w3.org/2000/svg">
<rect x="848.5" y="-82.5" width="3423" height="3168" rx="60.5" fill="white" stroke="white" stroke-width="7"/>
<path d="M4583.97 2165.23C4554.22 2160.63 4479.42 2174.68 4490 2216.03C4494.69 2234.18 4510.92 2249.03 4532.69 2258.77C4521.98 2314.02 4504.94 2367.85 4481.91 2419.2C4474.82 2423.57 4469.06 2429.78 4465.24 2437.18C4463.96 2439.74 4463.29 2442.56 4463.29 2445.43C4463.29 2448.29 4463.96 2451.11 4465.24 2453.67C4450.9 2481.65 4434.51 2508.54 4416.2 2534.11C4408.16 2527.64 4398.9 2522.84 4388.98 2519.99C4384.22 2518.69 4379.29 2518.09 4374.36 2518.22C4422.82 2428.69 4480.77 2285.8 4510.09 2081.81C4541.27 2086.62 4572.12 2083.15 4585.1 2067.67C4614.83 2032.42 4568.2 1984.76 4520.25 1972.57C4488.95 1964.66 4413.73 1980.88 4423.17 2028.55C4426.89 2047.42 4448.38 2062.95 4474.83 2072.76C4468.72 2104.69 4457.48 2163.49 4441.95 2227.56C4428.28 2217.3 4412.32 2210.51 4395.45 2207.76C4381.94 2205.56 4359.99 2210.16 4340.97 2219.67C4345.89 2190.91 4349.68 2167.06 4352 2149.54C4383.48 2145.1 4409.97 2131.82 4414.39 2108.74C4416.72 2098.13 4415.75 2087.06 4411.61 2077.02C4407.47 2066.98 4400.36 2058.43 4391.23 2052.53C4404.97 2032.39 4418.49 2000.01 4427.05 1949.87C4459.21 1952.62 4492.19 1945.01 4509.51 1921.63C4529.82 1894.98 4482.75 1848.64 4441.31 1842.38C4400.92 1836.32 4327.22 1868.1 4345.51 1908.81C4352.31 1923.97 4371.74 1936.54 4395.29 1943.99C4393.73 1952.16 4391.98 1961.32 4389.35 1970.7C4380.64 1959.8 4365.93 1949.09 4342.88 1939.68C4322.45 1931.34 4290.03 1939.32 4266.86 1956.06C4269.36 1943 4271.69 1930.81 4274.14 1919.67C4303.61 1915.68 4328.3 1901.41 4331.75 1878.01C4338.89 1829.21 4297.71 1810.17 4257.29 1808.99C4221.58 1808 4139.89 1852.04 4182.02 1893.97C4197.29 1907.93 4216.57 1916.73 4237.12 1919.13C4235.06 1931.95 4232.43 1948.71 4229.33 1968.97C4219.34 1965.59 4209.09 1963.03 4198.68 1961.31C4156.2 1954.08 4086.87 2011.07 4120.9 2045.68C4133.2 2058.24 4155.55 2065.97 4179.42 2068.42C4175.61 2093.36 4170 2130.78 4163.67 2175.63C4157.73 2171.57 4151.07 2168.68 4144.04 2167.13C4132.73 2164.91 4121.02 2165.99 4110.31 2170.23C4112.42 2157.17 4114.39 2146.19 4116.45 2138.11C4137.59 2138.05 4157.33 2129.89 4161.49 2111.12C4169.82 2073.26 4136.57 2070.17 4112.41 2065.55C4082.74 2059.88 4044.5 2088.56 4062.8 2116.11C4069.97 2125.29 4080.06 2131.75 4091.41 2134.41C4088.39 2148.53 4084.68 2167.58 4080.76 2190.12C4073.72 2197.88 4068.94 2207.41 4066.94 2217.69C4066.33 2220.6 4066.63 2223.63 4067.8 2226.36C4068.96 2229.09 4070.94 2231.41 4073.46 2232.99C4062.51 2308.71 4053.79 2406.68 4063.79 2491.74C4056.11 2547.19 4051.67 2603.04 4050.49 2659.01C4040.16 2604.88 4031.12 2540.98 4024.44 2465.8C4042.65 2453.5 4055.72 2433.87 4052.77 2420.73C4046.88 2394.45 4028.53 2387.67 3992.55 2392.79C3968.98 2396.17 3929.57 2435.66 3965.45 2467.35C3970.03 2471.45 3975.52 2474.41 3981.47 2476C3987.41 2477.58 3993.65 2477.74 3999.67 2476.46C4004.26 2561.57 4030.6 2922.86 4148.12 2998.07C4203.8 3033.61 4446.22 2837.85 4480.9 2758.96C4499.97 2767.68 4521.48 2769.74 4537.69 2755.84C4553.89 2741.94 4537.43 2700.1 4512.2 2687.64C4486.97 2675.18 4432.02 2689.82 4436.02 2714.58C4439.34 2725.57 4446.02 2735.24 4455.13 2742.23C4432.11 2767.6 4333.71 2873.5 4247.82 2925.33L4241.36 2933.27C4242.19 2931.63 4243.09 2929.95 4243.94 2928.18C4244.79 2926.42 4246.76 2926.54 4248.15 2925.65C4321.22 2843.4 4468.99 2664.05 4529.76 2494.05C4541.4 2497.59 4553.73 2498.25 4565.68 2495.97C4596.9 2486.81 4582.75 2429.5 4548.49 2414.23C4541.69 2411.45 4534.47 2409.84 4527.13 2409.43C4548.47 2361.29 4564.72 2313.59 4571.01 2269.95C4591.07 2272.93 4611.51 2272.05 4631.23 2267.35C4690.82 2252.25 4641.31 2174.01 4583.97 2165.23ZM4089.28 2339.62C4092.91 2306.19 4096.77 2272.28 4100.61 2241.45C4103.58 2242.02 4106.91 2242.08 4109.96 2242.22C4102.16 2276.52 4095.27 2308.99 4089.28 2339.62ZM4274.62 2035.05C4278.71 2036.47 4282.95 2037.79 4287.36 2038.9C4273.78 2044.1 4261.21 2051.64 4250.22 2061.18C4250.41 2060.19 4250.59 2059.26 4250.77 2058.33C4261.33 2053.79 4269.83 2045.49 4274.62 2035.05ZM4114.93 2866.05C4063.21 2684.16 4134.38 2332.15 4154.82 2239.05L4155.19 2239.12C4127.63 2446.72 4094.75 2753.64 4121.32 2878.3L4114.93 2866.05ZM4241.89 2124.57C4251.89 2133.97 4264.09 2140.72 4277.38 2144.19C4256.34 2236.4 4228.87 2364.27 4205.57 2491.14C4214.4 2384.85 4227.03 2246.25 4241.89 2124.57ZM4164.9 2715.54C4165.62 2716.4 4166.54 2717.07 4167.58 2717.49C4168.62 2717.92 4169.75 2718.08 4170.86 2717.96C4169.12 2732.77 4167.65 2747.18 4166.35 2761.04C4165.54 2747.8 4165.1 2732.64 4164.96 2715.55L4164.9 2715.54ZM4326.39 2300.93C4335.56 2306.63 4345.64 2310.72 4356.18 2313.04C4338.71 2400.73 4292.86 2615.29 4239.8 2741.98C4267.59 2604.68 4302.43 2430.56 4326.39 2300.93ZM4204.18 2776.1C4220.01 2651.33 4259.35 2369.07 4315.16 2150.77C4315.42 2149.41 4315.67 2148.11 4315.93 2146.75C4315.69 2147.99 4315.43 2149.35 4315.16 2150.77C4302.06 2231.03 4246.01 2563.41 4204.18 2776.1ZM4236.59 2882C4225.96 2892.8 4215.32 2902.99 4204.67 2912.59C4208.76 2891.18 4214.72 2864.02 4221.16 2832.73C4247.86 2790.49 4291.11 2711.38 4329.95 2591.59C4331.09 2590.01 4332.18 2588.29 4333.35 2586.59L4336.61 2588.31C4323.35 2635.49 4280.6 2782.5 4236.59 2882ZM4392.62 2317.25C4401.49 2317.05 4410.31 2315.95 4418.94 2313.94C4403.9 2365.4 4386.92 2414.25 4368.29 2449.5C4377.53 2408.61 4385.76 2364.57 4392.62 2317.25ZM4304.32 2801.16C4315.77 2774.86 4327.36 2747.82 4337.61 2721.11C4362.15 2688.14 4394.7 2642.21 4427.65 2590.77C4427.79 2590.03 4428.56 2589.4 4428.95 2588.71C4429.02 2588.57 4429.05 2588.42 4429.03 2588.27C4450.81 2553.95 4472.68 2517.2 4492.67 2479.45L4494.48 2480.43C4467.57 2536.17 4393.15 2682.52 4304.32 2801.16Z" fill="white"/>
<path d="M992.763 1161.52C957.112 1170.47 879.639 1221.8 911.182 1263.28C925.07 1281.48 950.379 1290.47 979.493 1291.1C993.676 1358.33 1000.07 1426.97 998.545 1495.67C992.639 1503.95 989.108 1513.68 988.334 1523.81C988.104 1527.3 988.691 1530.79 990.049 1534.01C991.406 1537.23 993.497 1540.09 996.155 1542.36C993.308 1580.65 987.638 1618.67 979.192 1656.13C967.07 1652.67 954.38 1651.67 941.862 1653.17C935.887 1653.96 930.062 1655.63 924.571 1658.12C936.572 1534.4 933.923 1346.15 870.041 1102.77C907.408 1093.37 940.459 1074.82 947.708 1051.24C964.416 997.482 889.336 966.002 829.609 975.063C790.642 981.027 713.731 1034.98 746.989 1084.13C760.123 1103.59 791.679 1110.85 826.081 1109.33C834.375 1148.15 849.644 1219.63 862.599 1299.07C842.352 1294.02 821.178 1293.95 800.896 1298.88C784.649 1302.82 762.148 1318.41 745.259 1338.14C737.14 1303.45 730.08 1274.83 724.375 1254.02C757.68 1234.08 781.175 1206.56 775.18 1178.5C772.762 1165.46 766.417 1153.47 756.992 1144.14C747.568 1134.8 735.514 1128.57 722.443 1126.27C728.336 1097.08 728.162 1054.24 713.986 993.783C751.469 981.606 784.961 957.379 793.337 922.862C803.536 883.234 728.583 853.458 678.993 866.097C630.683 878.462 562.869 949.2 602.769 986.307C617.613 1000.13 645.438 1005.04 675.474 1002.25C677.595 1012.18 679.974 1023.31 681.47 1035.11C666.503 1026.98 644.869 1021.92 614.469 1022.28C587.528 1022.61 554.854 1046.97 536.735 1076.81C533.344 1060.93 530.177 1046.11 527.645 1032.41C558.899 1013.93 579.899 986.158 572.667 958.2C557.537 899.909 502.172 898.047 456.137 915.905C415.5 931.746 344.514 1020.08 411.821 1047.24C435.625 1055.69 461.492 1056.44 485.753 1049.38C489.516 1064.78 494.517 1084.88 500.645 1109.14C487.802 1110.08 475.058 1112.07 462.538 1115.08C411.323 1127.12 360.387 1224.15 415.101 1246.92C434.903 1255.2 463.713 1253.29 491.726 1244.71C499.285 1274.57 510.736 1319.32 524.912 1372.78C516.302 1371.03 507.436 1370.95 498.794 1372.54C485.017 1375.41 472.358 1382.19 462.327 1392.05C458.5 1376.35 455.504 1363.06 453.985 1353C477.735 1342.9 496.059 1324.35 491.835 1301.25C483.23 1254.71 444.36 1267.02 414.987 1273.3C378.912 1281 349.519 1331.42 383.186 1353.73C395.61 1360.65 410.031 1363.13 424.057 1360.73C427.362 1378.04 432.237 1401.23 438.523 1428.45C434.296 1440.52 433.45 1453.51 436.076 1466.03C436.776 1469.59 438.548 1472.85 441.157 1475.37C443.765 1477.89 447.084 1479.56 450.667 1480.14C474.306 1570.52 511.016 1684.86 562.649 1775.79C580.345 1841.81 601.868 1906.75 627.11 1970.27C589.792 1914.28 549.288 1846.7 506.07 1765.3C520.718 1742.82 526.094 1714.53 516.542 1701.15C497.438 1674.39 473.572 1675.47 435.532 1698.31C410.622 1713.31 385.047 1776.44 440.447 1795.05C447.553 1797.49 455.133 1798.21 462.573 1797.17C470.014 1796.13 477.103 1793.35 483.266 1789.05C528.847 1882.61 730.014 2276.51 897.921 2305.32C977.437 2318.86 1157.18 1983.55 1158.73 1878.34C1184.32 1879.09 1209.49 1871.2 1221.12 1847.86C1232.75 1824.53 1194.37 1785.29 1160.07 1783.25C1125.77 1781.22 1070.92 1823.78 1087.17 1849.73C1096.12 1860.51 1108.23 1868.22 1121.8 1871.75C1107.95 1911.22 1047.53 2077.07 975.54 2176.15L972.039 2188.15C972.192 2185.92 972.403 2183.59 972.524 2181.2C972.644 2178.82 974.914 2178.02 976.056 2176.36C1019.2 2049.13 1100.27 1777.23 1087.91 1557.14C1102.68 1555.6 1116.86 1550.49 1129.22 1542.26C1160 1517.12 1116.87 1459.38 1071.08 1458.46C1062.11 1458.57 1053.21 1460.18 1044.77 1463.22C1045.92 1398.93 1041.55 1337.55 1027.91 1285.48C1051.88 1279.3 1074.45 1268.6 1094.41 1253.96C1154.28 1208.68 1061.43 1144.18 992.763 1161.52ZM519.102 1592.58C507.313 1553.24 495.545 1513.27 485.228 1476.77C488.843 1476 492.614 1474.48 496.117 1473.19C503.629 1515.48 511.291 1555.28 519.102 1592.58ZM582.963 1161.97C588.245 1161.63 593.645 1161.1 599.132 1160.24C586.319 1172.55 575.76 1187 567.933 1202.94C567.676 1201.74 567.434 1200.61 567.193 1199.48C576.924 1189.36 582.545 1175.99 582.963 1161.97ZM797.899 2172.56C653.36 1992.51 566.281 1562.75 545.067 1448.33L545.519 1448.24C613.082 1694.84 721.825 2055.7 810.906 2183.31L797.899 2172.56ZM588.658 1278.21C604.371 1284.04 621.299 1285.84 637.889 1283.43C658.006 1397.14 687.818 1554.02 721.848 1707.8C681.317 1584.05 629.721 1422.14 588.658 1278.21ZM782.651 1979.53C783.867 1980.16 785.22 1980.48 786.59 1980.46C787.96 1980.44 789.304 1980.09 790.504 1979.42C795.577 1996.91 800.764 2013.82 805.882 2030.03C798.687 2015.52 790.993 1998.67 782.726 1979.51L782.651 1979.53ZM767.444 1436.47C780.466 1438.52 793.744 1438.35 806.708 1435.95C828.687 1542.89 878.987 1806.01 879.454 1973.72C845.532 1806.07 802.047 1593.66 767.444 1436.47ZM855.592 2029.01C814.161 1881.14 724.389 1544.95 683.519 1272.89C683.166 1271.24 682.828 1269.66 682.474 1268C682.796 1269.51 683.15 1271.16 683.519 1272.89C706.889 1369.39 801.657 1769.89 855.592 2029.01ZM942.326 2132.74C935.498 2149.93 928.371 2166.46 920.942 2182.31C915.381 2156.28 909.197 2122.9 901.575 2084.64C911.554 2024.45 922.651 1914.93 909.456 1761.74C909.985 1759.42 910.407 1756.97 910.904 1754.5L915.395 1754.88C922.88 1814.25 944.589 1999.93 942.326 2132.74ZM849.699 1423.38C859.577 1418.95 868.972 1413.52 877.735 1407.16C885.248 1472.2 889.337 1535.2 885.128 1583.7C876.096 1533.31 864.443 1479.87 849.699 1423.38ZM980.133 2009.64C980.528 1974.63 980.73 1938.71 979.571 1903.79C991.525 1855.05 1006.32 1787.93 1018.97 1714.42C1018.78 1713.52 1019.34 1712.46 1019.45 1711.49C1019.47 1711.31 1019.43 1711.12 1019.34 1710.96C1027.54 1662.01 1034.68 1610.29 1039.26 1558.33L1041.75 1558.58C1037.95 1634.06 1023.73 1834.01 980.133 2009.64Z" fill="white"/>
<path d="M1686.47 685.13C1688.04 687.522 1688.72 690.39 1688.38 693.23C1688.38 693.23 1587.45 713.448 1570.58 790.765C1553.72 868.082 1436.04 1032.92 1156.82 1076.65C897.897 1117.22 786.485 978.46 766.259 936.64C739.905 952.314 717.372 966.935 693.785 949.812C654.254 921.559 679.554 867.951 787.276 842.266C736.611 802.29 599.372 695.996 501.006 638.963C490.992 641.203 479.594 644.035 466.417 647.591C328.058 685.261 471.753 519.366 713.946 499.214C729.561 497.896 745.637 496.843 762.042 496.052C666.575 396.41 527.821 216.882 473.4 145.426C429.587 148.061 394.997 144.899 375.166 131.662C294.391 77.8564 437.954 -81.3874 747.482 -74.8017C1057.01 -68.2159 1109.85 46.2447 1225.74 86.6154C1341.63 126.986 1452.71 99.7869 1428.67 169.53C1427.05 174.132 1424.18 178.194 1420.39 181.264C1416.6 184.333 1412.03 186.29 1407.19 186.917C1400.6 208.781 1376.16 252.182 1301.77 342.406C1257.73 394.296 1233.01 459.822 1231.8 527.862C1246.81 531.114 1261.63 535.159 1276.21 539.979C1310.6 491.826 1338.38 439.288 1358.83 383.765C1311.46 382.184 1308.49 365.588 1353.36 344.646C1432.88 307.502 1373.59 308.753 1483.48 263.904C1593.38 219.055 1712.23 259.426 1712.23 332.001C1712.23 373.755 1687.99 367.828 1649.78 359.595C1634.74 370.674 1623.62 386.241 1618.02 404.049C1563.99 550.583 1356.72 625.133 1243.79 643.31C1238.23 649.745 1233.17 656.592 1228.64 663.792C1364.69 646.866 1336.1 627.175 1537.31 602.478C1753.94 575.806 1798.74 680.454 1686.47 685.13Z" fill="white"/>
<path d="M4856.85 1471.5C4863.79 1384 4777.75 1341.1 4749.8 1325.09C4721.85 1309.07 4605.05 1246.52 4512.17 1326.4C4465.69 1366.36 4493.26 1409.58 4532.4 1442.47L4529.01 1441.03C4529.01 1441.03 4503.61 1444.51 4505.68 1465.16C4506.48 1472.66 4531.42 1491.55 4564.87 1510.92C4558.96 1521.47 4552.03 1531.41 4544.18 1540.61C4467.58 1511.63 4411.56 1528.68 4396.32 1576.61C4391.68 1591.17 4397.65 1611.2 4409.15 1632.22C4365.28 1648.27 4319.41 1658.16 4272.84 1661.61C4274.54 1648.63 4277.2 1635.78 4280.8 1623.19C4306.33 1579.46 4328.6 1533.91 4347.44 1486.91C4443.93 1341.89 4600.36 1213.07 4623.01 1194.89C4651.99 1215.21 4679.51 1228.03 4696.09 1223.22C4715.79 1217.31 4717.79 1198.39 4717.66 1189.46C4785.16 1214.77 4850.17 1215.24 4875.38 1164.91C4937.06 1041.91 4796.16 946.294 4725.61 919.898C4655.07 893.502 4528.65 893.882 4521.37 1000.93C4521.06 1017.23 4525.37 1033.28 4533.82 1047.22C4528.33 1046.98 4522.92 1048.56 4518.43 1051.72C4513.93 1054.88 4510.61 1059.44 4508.97 1064.68C4505.55 1077.55 4527.28 1108.31 4557.71 1139.28C4516.17 1163.99 4477.38 1193.04 4441.97 1225.95C4500.05 1037.31 4486.03 951.106 4469.73 914.852C4505.14 912.565 4534.63 906.033 4544.33 893.702C4559.75 874.358 4535.4 855.94 4535.4 855.94L4527.66 856.143C4580.01 830.583 4620.02 789.008 4605.12 727.853C4587.18 654.37 4487.57 622.796 4404.04 627.667C4400.57 627.906 4209.82 643.505 4210.41 762.652C4210.61 815.813 4254.24 847.405 4308.48 864.046C4303.72 867.314 4292.19 877.217 4299.26 890.334C4304.5 900.168 4336.9 908.272 4376.63 912.629C4376.04 923.907 4373.97 963.278 4370.69 1010.36C4344.78 978.674 4299.9 955.714 4239.25 943.356C4155.61 925.689 4092.59 940.179 4059.11 974.159C4053.42 970.726 4048.51 967.984 4044.78 965.819C4021.34 952.157 3923.47 899.409 3843.21 971.359C3803.1 1007.3 3825.56 1044.9 3858.27 1073.55L3855.37 1072.31C3855.37 1072.31 3833.86 1075.73 3835.11 1094.1C3835.64 1101.92 3863.4 1122.22 3898.34 1141.3C3884.95 1191.95 3810.81 1516.62 4073.11 1651.46C4094.52 1692.84 4132.19 1726.83 4197.18 1734.38C4227.03 1737.89 4243.81 1738.82 4251.12 1737.29C4376.11 1834.99 4480.5 1786.81 4509.99 1769.54C4534.89 1785.47 4557.75 1795.8 4569.82 1792.86C4584.59 1789.28 4583.17 1774.5 4581.77 1767.88C4611.44 1774.18 4640.08 1768.29 4661.78 1735.72C4698.51 1680.72 4680.01 1624.97 4617.42 1580.12C4625.4 1570.83 4633.29 1561.07 4641.09 1550.84L4629.99 1544.31C4674.31 1563.23 4717.81 1575.5 4737.36 1564.59C4741.71 1562.46 4745.26 1558.99 4747.48 1554.69C4749.71 1550.39 4750.49 1545.48 4749.71 1540.71C4812.51 1548.68 4852.45 1527.06 4856.85 1471.5ZM3972.71 1173.98C3997.09 1181.6 4018.43 1184.26 4029.99 1177.31C4033.73 1175.29 4036.78 1172.19 4038.72 1168.4C4040.67 1164.62 4041.43 1160.34 4040.9 1156.11C4052.54 1157.54 4064.33 1157.44 4075.95 1155.83C4094.16 1170.99 4114.22 1183.77 4135.66 1193.85C4122.73 1226.17 4111.66 1259.21 4102.5 1292.79C4016.5 1289.87 3968.64 1325.67 3973.75 1373.9C3975.67 1392.19 3997.41 1411.51 4023.79 1426.85L4023.3 1426.64C4023.3 1426.64 4007.88 1431.09 4011.73 1443.19C4013.72 1449.41 4029.91 1458.11 4051.89 1465.64C4045.76 1502.58 4045.13 1540.23 4050 1577.35C3983.89 1489.1 3933.07 1357.18 3972.71 1173.98ZM4205.92 1538.07C4198.77 1511.23 4193.87 1483.84 4191.28 1456.18C4212.96 1449.32 4229.79 1434.38 4234.82 1404.51C4241.8 1364.52 4226.86 1334.29 4194.81 1315.3C4199.53 1285.35 4205.8 1255.65 4213.61 1226.35C4248.87 1237.82 4280.38 1242.97 4294.37 1234.69C4310.75 1225 4304.97 1207.35 4301.52 1199.85C4317.39 1198.99 4332.83 1194.33 4346.54 1186.27C4340.05 1216.58 4331.22 1246.33 4320.13 1275.27C4289.65 1352.86 4237.75 1454.97 4205.92 1538.07Z" fill="white"/>
<path d="M1231.71 2525.48C1231.71 2527.85 1231.71 2530.22 1231.71 2532.66C1231.71 2603.86 1059.2 2631.46 932.679 2642.13C976.431 2804.29 1130.91 3497.93 768.197 3509.85C414.167 3521.51 593.189 2845.46 651.415 2656.75C519.83 2658.73 348.769 2646.81 340.413 2572.64C313.899 2549.65 338.308 2130.68 759.381 2124.09C1180.45 2117.51 1229.73 2460.41 1231.97 2521C1232.05 2522.5 1231.96 2524 1231.71 2525.48Z" fill="white"/>
<path d="M4592.14 610.613C4469.64 652.194 4219.12 762.002 4177.56 974.261C4122.45 1256.67 4093.64 1291.43 4021.48 1290.19C4021.48 1290.19 3936 1301.48 3946.74 1143.46C3957.47 986.935 3885.14 599.136 3730.88 514.703C3657.36 537.686 3630.73 552.541 3600.17 493.399C3561.03 416.72 3700.94 304.464 3847.96 317.784C3994.98 331.105 4073.55 416.72 4180.29 291.234C4287.03 165.748 4438.79 314.912 4475.34 359.62C4501.64 391.948 4658.69 350.329 4685.74 501.618C4706.44 618.445 4675.97 678.787 4592.14 610.613Z" fill="white"/>
</svg>
