<svg width="5120" height="2880" viewBox="0 0 5120 2880" fill="none" xmlns="http://www.w3.org/2000/svg">
<rect width="5120" height="2880" fill="#6D5D8F"/>
<path d="M2138.76 904.369C1719.75 1164.04 884.235 1786.98 912.587 2610.39C950.975 3705.75 873.948 3859.54 604.978 3917C604.978 3917 297.369 4032.4 201.272 3436.8C106.43 2846.72 -495.741 1469.86 -1141.07 1289.23C-1394.23 1437.75 -1480.29 1515.78 -1644.63 1322.59C-1855.89 1071.71 -1433.12 534.816 -875.861 457.794C-318.602 380.772 46.7151 630.905 335.005 73.438C623.294 -484.029 1315.04 -61.0363 1489.17 73.438C1614.62 170.781 2161.84 -118.74 2392.42 419.409C2569.81 835.125 2508.59 1085.26 2138.76 904.369Z" fill="#8B78B6"/>
</svg>
