<svg width="5120" height="2880" viewBox="0 -1400 5120 2880" fill="none" xmlns="http://www.w3.org/2000/svg">
<path d="M4691.45 436.126C4600.29 455.325 4427.77 499.216 4454.85 404.548C4481.93 309.88 4567.39 217.529 4734.29 205.943C4901.18 194.358 5022.73 163.111 5144.74 174.365C5266.75 185.619 5535.32 310.74 5354.33 438.046C5254.9 508.219 5022.73 366.284 4691.45 436.126Z" fill="#F7B0A8"/>
<path d="M4539.32 423.945C4539.32 423.945 4688.08 464.461 4688.08 623.344C4688.08 782.228 4319.6 1776.11 4931.5 1742.15C5543.4 1708.19 5109.12 923.899 5144.47 579.254C5157.71 447.381 5354.06 379.789 5354.06 379.789C5354.06 379.789 4698.21 106.178 4539.32 423.945Z" fill="#EFD7AD"/>
<path d="M4493.11 431.623C4493.11 431.623 4547.2 427.122 4662.19 364.032C4777.19 300.942 4777.12 406.798 5024.98 386.54C5272.84 366.283 5284.16 343.708 5354.07 404.547C5423.97 465.386 5309.05 258.44 5309.05 258.44L4686.75 242.618L4493.11 431.623Z" fill="#F7B0A8"/>
<path d="M4350.87 736.355C4320.78 737.426 4249.95 765.278 4268.11 803.905C4276.13 820.855 4294.86 832.387 4318.07 837.869C4317.93 894.145 4311.3 950.217 4298.33 1004.98C4292.18 1010.6 4287.69 1017.79 4285.33 1025.77C4284.55 1028.53 4284.43 1031.43 4284.96 1034.24C4285.5 1037.05 4286.68 1039.7 4288.42 1041.97C4279.59 1072.15 4268.55 1101.63 4255.37 1130.19C4246.26 1125.35 4236.26 1122.37 4225.98 1121.43C4221.06 1121.04 4216.11 1121.38 4211.28 1122.44C4242.06 1025.4 4272.15 874.165 4262.63 668.3C4294.16 667.166 4323.81 657.966 4333.65 640.323C4356.23 600.12 4301.48 562.06 4252.09 559.099C4219.86 557.208 4149.03 587.266 4167.26 632.32C4174.45 650.153 4198.48 661.369 4226.3 666.032C4226.3 698.547 4226.3 758.409 4223.08 824.258C4207.73 816.746 4190.78 813.07 4173.69 813.546C4160 813.924 4139.32 822.557 4122.41 835.474C4121.84 806.299 4121.09 782.165 4120.08 764.522C4150.16 754.25 4173.69 736.229 4173.69 712.725C4173.99 701.869 4170.95 691.182 4165 682.094C4159.05 673.006 4150.46 665.951 4140.39 661.873C4150.1 639.503 4157.29 605.161 4156.28 554.31C4188.39 550.97 4219.36 537.296 4231.97 511.083C4246.92 481.088 4191.98 444.415 4150.1 446.053C4109.29 447.691 4042.87 492.746 4068.48 529.293C4078.01 542.904 4099.45 551.6 4123.99 554.499C4123.99 562.816 4123.99 572.142 4123.17 581.846C4112.57 572.772 4096.11 565.022 4071.7 560.107C4050.07 555.759 4019.73 569.685 4000.11 590.479C4000.11 577.183 4000.11 564.77 4000.43 553.364C4028.62 543.912 4050.19 525.261 4049.18 501.631C4047.04 452.354 4003.01 441.39 3963.08 447.817C3927.83 453.552 3855.86 512.154 3905.12 545.425C3922.74 556.269 3943.33 561.296 3963.97 559.792C3964.35 572.772 3964.91 589.723 3965.67 610.202C3955.22 608.761 3944.68 608.17 3934.13 608.438C3891.05 609.32 3833.66 678.32 3873.58 705.919C3888.03 715.938 3911.43 719.341 3935.33 717.262C3936.28 742.467 3937.79 780.275 3940 825.518C3933.4 822.644 3926.32 821.061 3919.12 820.855C3907.6 820.8 3896.3 824.059 3886.58 830.244C3886.2 817.012 3886.07 805.858 3886.58 797.54C3907.33 793.508 3925.18 781.787 3925.74 762.568C3926.82 723.815 3893.58 727.029 3868.98 727.029C3838.76 727.029 3806.6 762.379 3829.74 786.009C3838.51 793.68 3849.64 798.127 3861.28 798.612C3860.97 813.042 3860.9 832.45 3861.28 855.324C3855.83 864.268 3852.93 874.531 3852.89 885.003C3852.84 887.973 3853.71 890.888 3855.36 893.355C3857.02 895.822 3859.39 897.723 3862.17 898.803C3865.63 975.238 3875.47 1073.1 3901.27 1154.76C3904.15 1210.67 3910.28 1266.36 3919.63 1321.56C3899.32 1270.33 3878.44 1209.27 3857.75 1136.68C3873.33 1121.18 3882.48 1099.44 3877.11 1087.09C3866.39 1062.38 3847.09 1059.17 3812.71 1070.95C3790.2 1078.71 3758.91 1124.89 3800.1 1149.28C3805.37 1152.45 3811.32 1154.33 3817.46 1154.76C3823.6 1155.2 3829.75 1154.19 3835.42 1151.8C3855.92 1234.54 3949.65 1584.45 4079.21 1636.25C4140.58 1660.7 4341.91 1422.88 4361.15 1338.89C4381.52 1343.86 4403.03 1341.85 4416.34 1325.15C4429.65 1308.45 4405.62 1270.45 4378.5 1262.96C4351.37 1255.46 4300.16 1280.16 4308.73 1303.73C4314.06 1313.89 4322.44 1322.14 4332.7 1327.29C4314.85 1356.53 4238.09 1479.03 4163.47 1546.07L4158.62 1555.08C4159.12 1553.32 4159.69 1551.49 4160.19 1549.6C4160.7 1547.71 4162.65 1547.46 4163.85 1546.33C4220.18 1451.81 4331.63 1247.9 4359.38 1069.51C4371.48 1070.8 4383.71 1069.13 4395.02 1064.65C4423.97 1049.78 4399.31 996.158 4362.79 987.588C4355.58 986.144 4348.19 985.91 4340.9 986.895C4352.82 935.602 4359.83 885.696 4357.81 841.65C4378.07 840.807 4397.98 836.102 4416.47 827.787C4472.16 801.762 4408.83 734.212 4350.87 736.355ZM3897.74 1000.57C3895.03 967.046 3892.44 933.019 3890.42 902.016C3893.45 902.016 3896.73 901.449 3899.76 901.008C3898.54 936.169 3897.87 969.356 3897.74 1000.57ZM4022.56 666.599C4026.85 667.229 4031.27 667.733 4035.81 667.985C4023.44 675.649 4012.51 685.416 4003.52 696.845C4003.52 695.837 4003.52 694.892 4003.52 693.947C4013.04 687.507 4019.83 677.76 4022.56 666.599ZM4021.81 1512.8C3936.85 1343.86 3940.63 984.753 3943.22 889.477H3943.59C3955.52 1098.55 3980.87 1406.18 4030.39 1523.64L4021.81 1512.8ZM4007.24 760.678C4018.82 768.036 4032.08 772.369 4045.78 773.28C4042.43 867.8 4039.47 998.553 4040.41 1127.54C4029.12 1021.49 4015.5 882.986 4007.24 760.678ZM4042.62 1355.59C4043.49 1356.3 4044.52 1356.79 4045.62 1357.01C4046.72 1357.23 4047.86 1357.17 4048.93 1356.85C4050 1371.72 4051.26 1386.15 4052.59 1400.01C4049.31 1387.15 4046.03 1372.35 4042.69 1355.59H4042.62ZM4123.36 918.022C4133.44 921.898 4144.1 924.029 4154.9 924.323C4154.2 1013.74 4149.47 1233.09 4121.15 1367.49C4122.66 1227.42 4124.18 1049.85 4123.36 918.022ZM4092.58 1407.7C4084.69 1282.17 4070.31 997.544 4084.13 772.65C4084.13 771.264 4084.13 769.941 4084.13 768.554C4084.13 769.815 4084.13 771.201 4084.13 772.65C4086.33 853.937 4093.71 1190.93 4092.58 1407.7ZM4144.3 1505.62C4135.89 1518.22 4127.35 1530.24 4118.69 1541.66C4118.69 1519.86 4119.45 1492.07 4119.89 1460.12C4138.18 1413.62 4165.81 1327.8 4181.45 1202.84C4182.27 1201.08 4183.03 1199.19 4183.85 1197.3L4187.38 1198.37C4183.22 1247.2 4168.83 1399.63 4144.3 1505.62ZM4191.48 921.613C4200.15 919.757 4208.6 917.012 4216.71 913.422C4211.6 966.794 4204.09 1017.96 4192.42 1056.08C4193.81 1014.18 4193.62 969.377 4191.48 921.613ZM4195.64 1413.49C4201.95 1385.52 4208.26 1356.78 4213.3 1328.62C4231.22 1291.63 4254.55 1240.4 4277.26 1183.69C4277.26 1182.93 4277.89 1182.17 4278.14 1181.42C4278.19 1181.27 4278.19 1181.12 4278.14 1180.98C4293.09 1143.17 4307.66 1102.97 4320.21 1062.13L4322.17 1062.76C4306.21 1122.56 4260.61 1280.28 4195.64 1413.49Z" fill="white"/>
<path d="M3617.33 1350.9C3617.33 1350.9 3561.11 2037.98 3827.55 2018.6C4093.98 1999.21 3824.67 1625.37 3898.41 1351.4C3932.8 1224.03 3617.33 1350.9 3617.33 1350.9Z" fill="#D1BE99"/>
<path d="M3612.52 1519.83C3612.52 1519.83 3509.78 1671.32 3515.88 1683.52C3521.98 1695.73 3566.93 1661.99 3594.14 1671.32C3621.35 1680.65 3610.01 1690.13 3641.81 1686.25C3673.62 1682.38 3657.68 1665.22 3677.21 1664C3696.74 1662.77 3707.79 1690.92 3740.75 1677.42C3773.7 1663.92 3776.21 1644.61 3814.12 1656.74C3852.03 1668.88 3869.05 1671.1 3884.98 1667.66C3900.92 1664.21 3887.43 1649.35 3917.94 1643.25C3948.45 1637.14 3959.51 1655.45 3969.27 1646.91C3979.04 1638.36 3886.13 1495.27 3886.13 1495.27C3886.13 1495.27 3817.14 1525.29 3748.72 1528.95C3703.12 1530.68 3657.47 1527.63 3612.52 1519.83Z" fill="#EFD7AD"/>
<path d="M3223.81 1151.95C3223.81 1151.95 3201.84 1294.97 3344.79 1331.44C3487.74 1367.91 3931.43 1430.45 4111.07 1331.44C4290.7 1232.43 4269.02 1115.19 4269.02 1115.19C4269.02 1115.19 3286.13 1060.34 3223.81 1151.95Z" fill="#FCBE56"/>
<path d="M3222.59 1133.64C3205.87 1060.12 3546.47 845.81 3718.78 844.015C3891.09 842.22 4261.34 1003.76 4290.7 1098.96C4320.07 1194.16 4144.02 1210.6 4008.4 1223.46C3872.78 1236.31 3257.92 1289.44 3222.59 1133.64Z" fill="#AB91C4"/>
<path d="M4062.35 1196.52C4062.35 1196.52 4103.98 1573.13 4429.18 1557.52C4747.62 1541.98 4217.82 1659.59 4133.85 1196.52C4133.74 1196.52 4060.02 1180.62 4062.35 1196.52Z" fill="#F4D4AE"/>
<path d="M4274.47 1158.96C4274.47 1158.96 4276.45 1529.51 4480.59 1525.79C4684.74 1522.06 4405.3 1527.88 4348.77 1158.96H4274.47Z" fill="#F4D4AE"/>
<path d="M4371.59 853.613C4371.59 853.613 4448.92 1029.98 4453.11 1164.78C4457.3 1299.57 4431.04 1523.57 4488.51 1541.62C4545.98 1559.67 4561.88 1412.82 4538.06 1117.44C4514.25 822.054 4427.08 806.275 4427.08 806.275L4371.59 853.613Z" fill="#F4D4AE"/>
<path d="M4300.03 1416.55C4300.03 1416.55 4351.56 1628.62 4512.15 1581.05C4672.74 1533.47 4375.38 1586.87 4371.42 1398.68C4367.46 1210.49 4300.03 1416.55 4300.03 1416.55Z" fill="#F4D4AE"/>
<path d="M4672.68 992.37C4672.68 992.37 4476.4 1353.38 4559.66 1525.61L4466.5 1543.08C4466.5 1543.08 4424.87 1204.67 4601.3 968.788L4672.68 992.37Z" fill="#F4D4AE"/>
<path d="M4734.35 1267.96C4734.35 1267.96 4731.84 1399.03 4548.72 1496.03C4365.59 1593.04 4718.45 1640.61 4809.63 1277.91L4734.35 1267.96Z" fill="#F4D4AE"/>
<path d="M4783.9 1493.82C4783.9 1493.82 4701.33 1635.49 4496.84 1542.85C4292.34 1450.21 4639.2 1598.92 4690.73 1474.02L4783.9 1493.82Z" fill="#F4D4AE"/>
<path d="M4004.24 1161.58C4004.24 1161.58 3987.94 1171.77 3995.33 1186.27C4002.73 1200.76 4158.37 1219.4 4182.76 1186.27C4195.69 1168.8 4173.74 1153.13 4173.74 1153.13L4004.24 1161.58Z" fill="#FCBE56"/>
<path d="M4084.18 1174.44C4084.18 1174.44 3919.17 1169.73 3959.29 1083.55C3999.41 997.376 4097.58 1006.23 4121.33 1009.2C4145.09 1012.17 4216.48 1016.65 4237.32 1082.04C4258.17 1147.43 4194.17 1179.16 4084.18 1174.44Z" fill="#FCBE56"/>
<path d="M4209.78 1120.64C4209.78 1120.64 4192.6 1131.24 4200.87 1145.33C4214.03 1167.75 4393.66 1174.45 4417.88 1141.14C4430.81 1123.67 4408.86 1108.01 4408.86 1108.01L4209.78 1120.64Z" fill="#FCBE56"/>
<path d="M4313.13 1134.03C4376.72 1126.76 4463.24 1114.7 4457.3 1025.5C4451.36 936.296 4380.04 900.603 4271.5 922.904C4162.97 945.205 4113.88 1007.39 4134.72 1068.47C4150.21 1114.24 4261.89 1139.86 4313.13 1134.03Z" fill="#FCBE56"/>
<path d="M4550.87 904.158C4550.87 904.158 4530.73 910.389 4533.41 928.439C4537.6 957.261 4705.58 1021.6 4740.75 992.78C4759.44 977.524 4744.36 953.535 4744.36 953.535L4550.87 904.158Z" fill="#FCBE56"/>
<path d="M4866.17 882.843C4873.57 761.44 4725.73 732.618 4659.17 735.646C4592.62 738.674 4490.32 782.693 4521.24 872.246C4552.15 961.799 4859.01 1004.3 4866.17 882.843Z" fill="#FCBE56"/>
<path d="M4680.37 1227.78C4680.37 1227.78 4660.92 1239.43 4669.77 1255.5C4678.62 1271.57 4863.96 1292.76 4892.78 1255.5C4908.09 1235.7 4882.01 1218.29 4882.01 1218.29L4680.37 1227.78Z" fill="#FCBE56"/>
<path d="M4775.45 1242.28C4775.45 1242.28 4579.11 1236.98 4626.86 1140.03C4674.6 1043.08 4791.35 1053.16 4819.65 1056.48C4847.95 1059.8 4932.84 1064.86 4957.65 1138.4C4982.45 1211.94 4906.35 1247.52 4775.45 1242.28Z" fill="#FCBE56"/>
<path d="M4670.47 1439.26C4670.47 1439.26 4654.4 1443.51 4658.3 1455.86C4664.59 1475.54 4809.69 1518.98 4835.78 1499.29C4849.75 1488.81 4834.96 1472.45 4834.96 1472.45L4670.47 1439.26Z" fill="#FCBE56"/>
<path d="M4751.87 1471.75C4805.09 1479.9 4877.93 1489.22 4890.74 1421.15C4903.55 1353.09 4852.55 1310.52 4759.79 1304.23C4667.04 1297.94 4614.86 1333.87 4619.64 1384.3C4623.25 1421.68 4709.08 1464.88 4751.87 1471.75Z" fill="#FCBE56"/>
<path d="M4301.25 832.945C4301.25 832.945 4289.08 849.073 4301.84 859.205C4322.21 875.392 4492.12 816.525 4502.78 776.872C4508.6 755.852 4482.4 749.331 4482.4 749.331L4301.25 832.945Z" fill="#FCBE56"/>
<path d="M4296.13 609.295C4293.33 610.634 4143.63 689.59 4185.5 786.189C4227.36 882.787 4408.51 815.943 4454.57 774.543C4500.62 733.144 4534.86 674.917 4494.74 621.406C4454.62 567.896 4362.39 576.572 4296.13 609.295Z" fill="#FCBE56"/>
<path d="M4263.93 1391.28C4263.93 1391.28 4252.98 1400.31 4260.32 1408.75C4271.96 1422.08 4399.6 1405.72 4413.11 1380.98C4420.33 1367.82 4403.15 1360.13 4403.15 1360.13L4263.93 1391.28Z" fill="#FCBE56"/>
<path d="M4338.34 1388.25C4382.48 1376.14 4442.28 1358.15 4428.48 1299.81C4414.68 1241.46 4360.41 1226.09 4286.17 1253.23C4211.93 1280.36 4184.04 1327.29 4205.35 1365.43C4221.19 1393.9 4302.82 1398.04 4338.34 1388.25Z" fill="#FCBE56"/>
<path d="M4489.38 1497.66C4489.38 1497.66 4372.06 1496.85 4396.86 1529.98C4421.67 1563.11 4592.91 1611.96 4546.74 1518.33C4522.52 1468.96 4489.38 1497.66 4489.38 1497.66Z" fill="#F4D4AE"/>
<path d="M782.318 1381.97C782.318 1381.97 808.034 1614.61 1008.91 1604.97C1205.61 1595.4 878.35 1668.05 826.485 1381.97C826.413 1381.97 780.843 1372.15 782.318 1381.97Z" fill="#F4D4AE"/>
<path d="M913.346 1362.37C913.346 1362.37 914.569 1587.67 1040.67 1585.36C1166.77 1583.06 994.164 1590.26 959.24 1362.37H913.346Z" fill="#F4D4AE"/>
<path d="M973.338 1170.12C973.338 1170.12 1021.07 1279.1 1023.69 1362.37C1026.32 1445.63 1010.2 1584 1045.7 1595C1081.2 1606.01 1090.73 1515.41 1076.35 1332.98C1061.96 1150.56 1007.79 1140.74 1007.79 1140.74L973.338 1170.12Z" fill="#F4D4AE"/>
<path d="M929.244 1517.85C929.244 1517.85 961.075 1648.88 1060.27 1619.5C1159.47 1590.11 975.785 1623.09 973.339 1506.85C970.894 1390.6 929.244 1517.85 929.244 1517.85Z" fill="#F4D4AE"/>
<path d="M1159.43 1255.83C1159.43 1255.83 1038.19 1478.83 1089.62 1585.22L1032.07 1596.01C1032.07 1596.01 1006.36 1386.97 1115.34 1241.27L1159.43 1255.83Z" fill="#F4D4AE"/>
<path d="M1197.41 1426.03C1197.41 1426.03 1195.87 1506.96 1082.75 1566.91C969.634 1626.87 1187.59 1656.22 1243.92 1432.15L1197.41 1426.03Z" fill="#F4D4AE"/>
<path d="M746.423 1360.39C746.423 1360.39 736.316 1366.68 740.92 1375.6C745.524 1384.52 841.628 1396.07 856.698 1375.6C864.683 1364.81 851.123 1355.18 851.123 1355.18L746.423 1360.39Z" fill="#F7B0A8"/>
<path d="M795.805 1368.34C795.805 1368.34 693.874 1365.43 718.656 1312.16C743.437 1258.89 804.042 1264.43 818.752 1266.26C833.463 1268.1 877.522 1270.83 890.363 1311.26C903.203 1351.69 863.747 1371.22 795.805 1368.34Z" fill="#F7B0A8"/>
<path d="M873.387 1335.11C873.387 1335.11 862.597 1341.65 867.848 1350.32C875.976 1364.2 986.971 1368.3 1001.93 1347.73C1009.92 1336.94 996.358 1327.3 996.358 1327.3L873.387 1335.11Z" fill="#F7B0A8"/>
<path d="M937.228 1343.38C976.504 1338.92 1029.95 1331.44 1026.28 1276.34C1022.61 1221.23 978.518 1199.22 911.511 1213C844.505 1226.77 814.149 1265.15 827.025 1302.91C836.592 1331.15 905.577 1347.01 937.228 1343.38Z" fill="#F7B0A8"/>
<path d="M1084.08 1201.38C1084.08 1201.38 1071.64 1205.23 1073.29 1216.38C1075.88 1234.36 1179.65 1273.92 1201.37 1255.94C1212.92 1246.55 1203.6 1231.74 1203.6 1231.74L1084.08 1201.38Z" fill="#F7B0A8"/>
<path d="M1278.81 1188.21C1283.41 1113.22 1192.09 1095.42 1150.98 1097.29C1109.87 1099.16 1046.68 1126.35 1065.77 1181.67C1084.87 1236.99 1274.17 1263.21 1278.81 1188.21Z" fill="#F7B0A8"/>
<path d="M1164.07 1401.28C1164.07 1401.28 1152.06 1408.48 1157.49 1418.4C1162.92 1428.33 1277.44 1441.42 1295.28 1418.4C1304.74 1406.14 1288.55 1395.35 1288.55 1395.35L1164.07 1401.28Z" fill="#F7B0A8"/>
<path d="M1222.81 1410.21C1222.81 1410.21 1101.49 1406.97 1131.02 1347.08C1160.55 1287.2 1232.63 1293.38 1250.11 1295.47C1267.59 1297.56 1320.03 1300.61 1335.35 1346.04C1350.67 1391.47 1303.66 1413.33 1222.81 1410.21Z" fill="#F7B0A8"/>
<path d="M1208.24 1551.81C1241.11 1556.88 1286.07 1562.6 1294.02 1520.59C1301.97 1478.58 1270.43 1452.25 1213.13 1448.37C1155.84 1444.48 1123.61 1466.67 1126.56 1497.82C1128.79 1521.02 1181.8 1547.74 1208.24 1551.81Z" fill="#F7B0A8"/>
<path d="M929.892 1157.39C929.892 1157.39 922.375 1167.32 930.252 1173.58C942.84 1183.57 1047.79 1147.25 1054.37 1122.75C1057.97 1109.73 1041.75 1105.71 1041.75 1105.71L929.892 1157.39Z" fill="#F7B0A8"/>
<path d="M926.725 1019.24C924.999 1020.07 832.528 1068.81 858.388 1128.51C884.248 1188.22 996.142 1146.85 1024.59 1121.32C1053.04 1095.78 1074.19 1059.78 1049.37 1026.72C1024.56 993.67 967.656 999.029 926.725 1019.24Z" fill="#F7B0A8"/>
<path d="M906.836 1502.28C906.836 1502.28 900.074 1507.82 904.606 1513.07C911.799 1521.31 990.639 1511.16 998.983 1495.91C1003.44 1487.79 992.833 1483 992.833 1483L906.836 1502.28Z" fill="#F7B0A8"/>
<path d="M952.802 1500.41C980.065 1492.89 1017 1481.81 1008.48 1445.78C999.955 1409.74 966.434 1400.21 920.576 1417C874.718 1433.8 857.489 1462.75 870.617 1486.31C880.436 1503.9 930.862 1506.45 952.802 1500.41Z" fill="#F7B0A8"/>
<path d="M691.376 1684.86C691.376 1684.86 618.347 1712.29 595.515 1570.7C572.682 1429.11 426.564 1095.86 271.325 1059.32C116.086 1022.77 736.923 809.944 736.923 809.944L1111.37 937.76C1111.37 937.76 755.582 1114.1 764.704 1374.38C773.825 1634.67 755.344 1671.21 691.376 1684.86Z" fill="#F9A852"/>
<path d="M307.689 1019.73C307.689 1019.73 527.731 1096.58 620.731 1598C633.429 1666.5 668.066 1672.7 668.066 1672.7" stroke="#F79850" stroke-width="3" stroke-miterlimit="10"/>
<path d="M441.763 973.052C441.763 973.052 607.495 1254.2 641.952 1582.5C647.616 1636.93 680.345 1672.82 678.735 1672.82" stroke="#F79850" stroke-width="3" stroke-miterlimit="10"/>
<path d="M571.666 932.453C571.666 932.453 655.128 1439.84 670.091 1666.62" stroke="#F79850" stroke-width="3" stroke-miterlimit="10"/>
<path d="M1034.4 932.453C1034.4 932.453 713.73 981.159 734 1542.32C738.352 1662.51 691.375 1672.58 691.375 1672.58" stroke="#F79850" stroke-width="3" stroke-miterlimit="10"/>
<path d="M912.61 853.285C912.61 853.285 701.571 942.708 701.571 1486.52C701.571 1618.39 686.071 1666.62 686.071 1666.62" stroke="#F79850" stroke-width="3" stroke-miterlimit="10"/>
<path d="M701.569 853.285C701.569 853.285 639.747 1362.34 687.976 1672.82" stroke="#F79850" stroke-width="3" stroke-miterlimit="10"/>
<path d="M339.763 1027.36C226.851 1080.06 207.357 1127.81 157.16 1068.44C106.964 1009.06 207.357 881.245 339.763 862.943C472.169 844.641 558.969 904.018 627.468 771.612C695.966 639.206 860.326 739.658 901.699 771.612C931.507 794.743 1061.53 725.946 1116.32 853.822C1171.1 981.697 1130.8 1043.64 959.705 904.018C892.578 849.231 870.58 900.978 751.051 876.654C631.521 852.331 700.556 940.562 581.921 981.697C463.286 1022.83 408.261 995.468 339.763 1027.36Z" fill="#FCBE56"/>
<path d="M-139.356 1008.09C-139.356 1008.09 8.33762 1657.29 223.6 1743.41C317.847 1781.17 638.34 1394.67 638.34 1291.11L600.678 1281.87C600.678 1281.87 395.108 1628.95 252.676 1672.52C252.676 1672.52 68.0604 1616.58 -106.402 989.996L-139.356 1008.09Z" fill="#EFD7AD"/>
<path d="M230.619 451.931C230.619 451.931 259.142 1631.44 230.619 1682.12C202.096 1732.8 280.096 1682.12 280.096 1682.12C280.096 1682.12 298.558 555.962 280.096 430.7C261.634 305.438 230.619 451.931 230.619 451.931Z" fill="#EFD7AD"/>
<path d="M25.6016 1420.52C25.6016 1420.52 -61.6291 1224.92 -37.9983 640.425L25.6016 614.579C25.6016 614.579 -15.1983 1507.75 224.341 1668L25.6016 1420.52Z" fill="#EFD7AD"/>
<path d="M638.343 875.905C598.282 1236.55 299.019 1689.23 299.019 1689.23L256.465 1635.05C454.281 1413.51 588.774 866.674 588.774 866.674L638.343 875.905Z" fill="#EFD7AD"/>
<path d="M383.57 1078.8C383.57 1078.8 340.923 1640.03 256.184 1704.74C171.445 1769.45 319.877 1689.23 319.877 1689.23C319.877 1689.23 458.985 1248.55 435.355 1078.8H383.57Z" fill="#EFD7AD"/>
<path d="M572.341 548.579C572.341 548.579 588.864 801.042 461.572 1042.43C334.279 1283.81 374.433 1382.86 374.433 1382.86C374.433 1382.86 661.972 850.242 628.926 548.579H572.341Z" fill="#EFD7AD"/>
<path d="M334.37 642.826C334.37 642.826 338.8 1248.55 256.461 1448.86C174.122 1649.17 256.461 1545.51 256.461 1545.51C256.461 1545.51 419.2 1248.55 385.693 664.056L334.37 642.826Z" fill="#EFD7AD"/>
<path d="M70.1863 357.684C140.248 1544.67 241.695 1528.98 241.695 1528.98C241.695 1528.98 336.68 1762.34 190.095 1638.09C43.5098 1513.84 11.4785 343.469 11.4785 343.469L70.1863 357.684Z" fill="#EFD7AD"/>
<path d="M490.739 301.101C523.693 892.888 334.37 1184.86 334.37 1184.86C334.37 1184.86 287.2 1097.72 368.431 946.888C449.662 796.057 438.4 284.578 438.4 284.578L490.739 301.101Z" fill="#EFD7AD"/>
<path d="M183.54 272.76C183.54 272.76 125.387 1347.41 224.341 1613.81C320.711 1873.1 249.448 1503.04 249.448 1503.04C249.448 1503.04 188.248 711.13 249.448 284.575L183.54 272.76Z" fill="#EFD7AD"/>
<path d="M212.527 166.793C158.619 155.9 68.0651 222.177 80.619 284.578C93.1729 346.978 267.913 326.208 292.928 299.531C317.944 272.854 341.389 192.731 212.527 166.793Z" fill="#F27779"/>
<path d="M53.8467 124.331C53.8467 124.331 83.3849 1173.14 141.724 1290.92C200.062 1408.71 195.262 1250.86 195.262 1250.86C195.262 1250.86 89.2002 378.825 110.431 114.916L53.8467 124.331Z" fill="#EFD7AD"/>
<path d="M288.492 105.501C288.492 105.501 296.339 296.394 256.462 343.471C216.585 390.548 355.509 402.456 334.37 114.917L288.492 105.501Z" fill="#EFD7AD"/>
<path d="M-84.43 411.041C-128.646 411.041 -175.63 462.918 -141.845 497.441C-108.061 531.964 -2.64478 519.965 -1.07555 463.195C0.493698 406.426 -48.2452 411.041 -84.43 411.041Z" fill="#F27779"/>
<path d="M11.4783 237.408C-51.6605 238.608 -135.661 339.777 -77.2297 380.208C-18.7986 420.639 138.402 387.501 141.725 315.593C145.048 243.685 53.8477 236.485 11.4783 237.408Z" fill="#F27779"/>
<path d="M53.8463 2.57704C2.33838 10.8848 -103.077 96.8235 -30.9849 145.562C41.1077 194.301 182.708 153.408 179.57 80.9465C176.431 8.48467 112 -6.65377 53.8463 2.57704Z" fill="#F27779"/>
<path d="M-10.5873 548.577C-51.3874 546.823 -107.972 587.069 -107.972 642.823C-107.972 698.577 63.9976 648.269 62.0591 621.592C60.1207 594.915 44.4283 550.884 -10.5873 548.577Z" fill="#F27779"/>
<path d="M220.647 301.101C165.263 305.717 58.5549 385.932 105.724 448.794C152.894 511.656 361.787 475.471 361.787 390.64C361.787 305.808 259.509 297.963 220.647 301.101Z" fill="#F27779"/>
<path d="M327.265 0.0837429C267.542 2.48375 170.341 68.4839 207.818 121.93C245.295 175.377 407.757 177.315 447.819 95.2533C468.681 51.2224 388.558 -2.40858 327.265 0.0837429Z" fill="#F27779"/>
<path d="M476.527 165.593C429.358 162.731 325.696 206.762 352.373 272.762C379.05 338.763 562.928 343.47 595.974 284.578C629.02 225.685 548.804 169.931 476.527 165.593Z" fill="#F27779"/>
<path d="M361.788 537.963C314.711 539.256 210.772 607.287 256.464 667.656C302.157 728.026 460.835 699.964 475.788 633.779C490.742 567.594 418.373 536.763 361.788 537.963Z" fill="#F27779"/>
<path d="M621.079 425.164C577.048 426.826 473.386 467.626 499.97 524.211C526.555 580.796 635.202 596.488 716.894 558.734C798.587 520.98 705.91 422.026 621.079 425.164Z" fill="#F27779"/>
<path d="M438.402 989.624C401.478 985.84 325.417 1023.87 336.863 1069.38C348.309 1114.89 496.557 1124.76 514.28 1078.61C532.003 1032.46 491.663 995.071 438.402 989.624Z" fill="#F27779"/>
<path d="M638.342 792.824C607.696 785.624 539.388 799.193 525.265 849.409C511.142 899.624 643.05 927.502 685.511 905.717C727.973 883.932 691.788 805.655 638.342 792.824Z" fill="#F27779"/>
<path d="M661.973 1196.67C622.65 1185.69 547.234 1221.78 559.788 1256.4C572.341 1291.01 673.88 1341.69 716.711 1287.78C735.727 1264.24 701.204 1207.66 661.973 1196.67Z" fill="#F27779"/>
</svg>
