<svg width="481" height="493" viewBox="0 0 481 493" fill="none" xmlns="http://www.w3.org/2000/svg">
<path d="M478.787 272.445C466.993 236.372 426.533 233.916 413.047 232.288C399.56 230.66 343.921 225.605 321.138 273.273C309.733 297.122 327.576 309.66 348.195 316.115H346.641C346.641 316.115 337.372 321.827 341.59 329.71C343.144 332.566 355.937 335.851 372.115 337.878C371.568 343.092 370.527 348.239 369.007 353.244C334.514 354.729 315.616 371.066 317.642 392.773C318.252 399.37 323.886 406.339 331.822 412.766C317.473 426.634 301.326 438.389 283.842 447.696C282.352 442.227 281.257 436.652 280.568 431.016C283.226 409.232 284.321 387.276 283.842 365.326C297.245 291.067 336.567 213.066 342.339 201.956C356.936 205.126 369.729 205.555 375.362 200.814C382.022 195.101 379.663 187.219 378.137 183.677C408.496 182.277 433.776 171.396 435.219 147.033C438.771 87.4831 368.314 73.3454 336.595 74.8305C304.877 76.3157 255.925 97.9936 270.827 141.921C273.402 148.474 277.732 154.14 283.315 158.258C281.148 159.096 279.312 160.649 278.092 162.674C276.872 164.7 276.338 167.083 276.572 169.454C277.376 175.166 290.891 183.734 307.818 190.903C295.804 207.827 285.571 226.018 277.293 245.169C268.579 160.057 248.877 128.068 236.556 116.387C249.904 109.447 260.254 101.821 261.975 95.2517C264.75 84.9126 252.262 81.7138 252.262 81.7138L249.293 83.1133C265.36 64.0059 273.991 40.6143 258.09 18.7651C238.97 -7.48259 195.125 -3.11274 163.545 13.0529C162.241 13.7383 90.8674 52.4386 110.82 99.8501C119.7 121.014 141.844 126.183 165.626 123.584C164.322 125.698 161.492 131.61 166.403 135.637C170.066 138.665 183.969 136.38 200.092 131.353C201.729 135.951 207.446 152.003 213.967 171.339C198.677 163.113 177.476 161.599 151.918 166.997C116.564 174.195 94.5304 190.703 87.1766 209.953C84.4016 209.553 82.0428 209.296 80.239 209.068C68.8892 207.611 22.2134 203.241 3.01032 245.597C-6.59124 266.761 8.33836 277.929 25.7655 283.784H24.4335C24.4335 283.784 16.6634 288.81 20.1877 295.922C21.6862 298.95 35.811 302.32 52.5166 303.976C55.7079 326.454 80.7108 468.545 204.726 477.656C219.878 490.509 240.108 497.649 266.554 489.595C278.708 485.911 285.368 483.426 287.949 481.569C352.579 499.249 385.075 462.262 393.65 450.352C405.943 452.466 416.516 452.694 420.706 449.467C425.84 445.525 422.843 439.87 421.205 437.471C433.748 434.929 443.877 427.703 446.902 411.023C452.036 382.834 435.635 363.755 403.945 356.529C405.499 351.464 406.942 346.228 408.274 340.82L402.89 340.106C423.203 340.106 442.101 337.593 447.873 329.91C449.207 328.322 450.009 326.333 450.159 324.24C450.309 322.146 449.799 320.058 448.706 318.285C474.375 310.774 486.28 295.351 478.787 272.445ZM86.7603 304.348C97.4719 303.234 106.185 300.663 109.515 295.922C110.633 294.479 111.3 292.722 111.429 290.882C111.557 289.042 111.142 287.204 110.237 285.612C114.988 284.197 119.54 282.152 123.779 279.528C133.347 282.474 143.241 284.154 153.222 284.526C153.559 299.616 154.736 314.673 156.746 329.624C122.919 343.105 110.292 365.526 120.255 383.89C124.029 390.859 135.656 394.858 148.421 396.486H148.199C148.199 396.486 142.954 400.884 146.451 405.054C148.255 407.196 155.969 407.91 165.737 407.168C169.478 422.943 175.463 438.063 183.497 452.037C143.26 428.103 101.718 384.147 86.7603 304.348ZM237.444 409.824C230.229 400.339 223.797 390.25 218.213 379.663C225.483 373.237 229.535 364.412 226.538 351.645C222.625 334.508 211.83 324.997 196.263 322.884C193.129 310.136 190.647 297.227 188.825 284.212C204.393 282.784 217.464 279.471 221.515 273.787C226.26 267.133 221.099 261.078 218.518 258.678C224.53 255.631 229.745 251.146 233.725 245.597C236.226 258.786 237.729 272.155 238.221 285.583C239.248 321.713 236.029 371.266 237.444 409.824Z" fill="white"/>
</svg>
