<svg width="372" height="382" viewBox="0 0 372 382" fill="none" xmlns="http://www.w3.org/2000/svg">
<path d="M370.289 211.103C361.167 183.153 329.876 181.249 319.446 179.988C309.015 178.726 265.985 174.809 248.365 211.745C239.544 230.224 253.344 239.939 269.29 244.941H268.088C268.088 244.941 260.92 249.367 264.182 255.475C265.384 257.688 275.278 260.233 287.79 261.804C287.367 265.844 286.562 269.832 285.386 273.711C258.709 274.861 244.094 287.52 245.661 304.339C246.133 309.451 250.489 314.851 256.628 319.831C245.53 330.576 233.042 339.685 219.52 346.896C218.368 342.659 217.521 338.339 216.988 333.972C219.044 317.092 219.89 300.08 219.52 283.072C229.886 225.532 260.297 165.094 264.761 156.485C276.05 158.942 285.944 159.274 290.301 155.6C295.452 151.174 293.627 145.066 292.447 142.322C315.926 141.237 335.478 132.806 336.594 113.928C339.341 67.7861 284.85 56.8315 260.319 57.9823C235.788 59.1331 197.93 75.9301 209.455 109.967C211.446 115.045 214.795 119.435 219.112 122.626C217.437 123.275 216.016 124.479 215.073 126.048C214.13 127.617 213.716 129.464 213.897 131.301C214.52 135.727 224.972 142.366 238.063 147.921C228.771 161.035 220.858 175.13 214.455 189.969C207.716 124.02 192.479 99.2336 182.95 90.1822C193.273 84.8045 201.278 78.8956 202.608 73.8056C204.755 65.7944 195.097 63.3157 195.097 63.3157L192.8 64.4001C205.227 49.5948 211.901 31.4699 199.604 14.5401C184.817 -5.79787 150.907 -2.4119 126.484 10.114C125.475 10.6451 70.2758 40.632 85.7067 77.3686C92.5745 93.7673 109.701 97.773 128.094 95.7591C127.085 97.3967 124.896 101.978 128.694 105.098C131.527 107.444 142.28 105.674 154.749 101.779C156.015 105.342 160.436 117.779 165.48 132.761C153.654 126.388 137.258 125.215 117.491 129.397C90.1493 134.974 73.1087 147.766 67.4214 162.682C65.2752 162.372 63.451 162.173 62.056 161.996C53.2782 160.867 17.1796 157.481 2.32815 190.301C-5.09759 206.699 6.44879 215.352 19.9267 219.889H18.8966C18.8966 219.889 12.8873 223.784 15.6129 229.295C16.7719 231.64 27.6958 234.252 40.6158 235.535C43.0839 252.952 62.4208 363.051 158.333 370.111C170.051 380.07 185.697 385.602 206.15 379.362C215.55 376.507 220.701 374.581 222.697 373.143C272.681 386.842 297.812 358.183 304.444 348.954C313.952 350.592 322.129 350.769 325.369 348.268C329.34 345.214 327.022 340.832 325.756 338.973C335.456 337.004 343.29 331.405 345.629 318.481C349.599 296.638 336.916 281.855 312.406 276.256C313.608 272.331 314.724 268.274 315.754 264.084L311.591 263.531C327.301 263.531 341.916 261.583 346.38 255.63C347.412 254.399 348.032 252.859 348.148 251.236C348.264 249.614 347.87 247.996 347.024 246.623C366.876 240.803 376.083 228.852 370.289 211.103ZM67.0995 235.823C75.3837 234.96 82.1226 232.968 84.698 229.295C85.5622 228.177 86.078 226.815 86.1776 225.389C86.2772 223.963 85.956 222.54 85.2561 221.306C88.9306 220.209 92.4513 218.625 95.7293 216.592C103.129 218.875 110.781 220.176 118.5 220.465C118.761 232.157 119.671 243.824 121.226 255.409C95.064 265.854 85.299 283.227 93.0037 297.457C95.9225 302.856 104.915 305.955 114.787 307.216H114.616C114.616 307.216 110.559 310.624 113.264 313.855C114.659 315.515 120.625 316.068 128.179 315.493C131.072 327.716 135.701 339.432 141.915 350.26C110.795 331.715 78.6673 297.656 67.0995 235.823ZM183.636 317.551C178.057 310.202 173.082 302.384 168.763 294.181C174.386 289.202 177.52 282.364 175.202 272.471C172.176 259.193 163.827 251.824 151.787 250.186C149.364 240.308 147.444 230.306 146.036 220.221C158.076 219.115 168.184 216.547 171.317 212.143C174.987 206.987 170.995 202.295 168.999 200.436C173.649 198.075 177.682 194.6 180.76 190.301C182.694 200.52 183.857 210.879 184.237 221.283C185.031 249.278 182.542 287.675 183.636 317.551Z" fill="#6D5D8F"/>
</svg>
