<svg width="1440" height="3200" viewBox="0 0 1440 3200" fill="none" xmlns="http://www.w3.org/2000/svg">
<path d="M437.411 2668.68C378.167 2681.16 266.047 2709.68 283.644 2648.16C301.24 2586.63 356.784 2526.61 465.247 2519.09C573.71 2511.56 652.701 2491.25 731.994 2498.56C811.287 2505.88 985.834 2587.19 868.207 2669.93C803.586 2715.53 652.701 2623.29 437.411 2668.68Z" fill="#F7B0A8"/>
<path d="M338.542 2660.76C338.542 2660.76 435.216 2687.09 435.216 2790.35C435.216 2893.6 195.746 3539.52 593.414 3517.45C991.082 3495.38 708.847 2985.67 731.822 2761.69C740.426 2675.99 868.035 2632.06 868.035 2632.06C868.035 2632.06 441.799 2454.25 338.542 2660.76Z" fill="#EFD7AD"/>
<path d="M308.512 2665.75C308.512 2665.75 343.662 2662.83 418.394 2621.83C493.126 2580.83 493.084 2649.62 654.164 2636.46C815.245 2623.29 822.602 2608.62 868.035 2648.16C913.468 2687.7 838.779 2553.2 838.779 2553.2L434.356 2542.92L308.512 2665.75Z" fill="#F7B0A8"/>
<path d="M835.056 3112.61C835.056 3112.61 798.169 3563.46 972.995 3550.74C1147.82 3538.02 971.111 3292.71 1019.49 3112.94C1042.06 3029.37 835.056 3112.61 835.056 3112.61Z" fill="#D1BE99"/>
<path d="M576.843 2982.06C576.843 2982.06 562.427 3075.91 656.224 3099.84C750.021 3123.77 1041.16 3164.81 1159.03 3099.84C1276.9 3034.88 1262.68 2957.94 1262.68 2957.94C1262.68 2957.94 617.735 2921.95 576.843 2982.06Z" fill="#FCBE56"/>
<path d="M576.043 2970.05C565.066 2921.81 788.558 2781.19 901.623 2780.01C1014.69 2778.83 1257.64 2884.83 1276.9 2947.3C1296.17 3009.77 1180.66 3020.56 1091.67 3028.99C1002.67 3037.42 599.221 3072.28 576.043 2970.05Z" fill="#AB91C4"/>
<path d="M1063.14 3084.19C1063.14 3084.19 1194 3659.4 1384.72 3735.71C1468.23 3769.16 1752.19 3426.72 1752.19 3334.95L1718.83 3326.77C1718.83 3326.77 1536.68 3634.29 1410.49 3672.9C1410.49 3672.9 1246.91 3623.33 1092.33 3068.16L1063.14 3084.19Z" fill="#EFD7AD"/>
<path d="M1390.94 2591.42C1390.94 2591.42 1416.21 3636.5 1390.94 3681.4C1365.67 3726.3 1434.78 3681.4 1434.78 3681.4C1434.78 3681.4 1451.14 2683.6 1434.78 2572.61C1418.42 2461.63 1390.94 2591.42 1390.94 2591.42Z" fill="#EFD7AD"/>
<path d="M1209.29 3449.62C1209.29 3449.62 1132 3276.31 1152.94 2758.43L1209.29 2735.53C1209.29 2735.53 1173.14 3526.91 1385.38 3668.89L1209.29 3449.62Z" fill="#EFD7AD"/>
<path d="M1102.81 2612.28C1102.81 2612.28 1086.45 2950.55 1171.67 3159.36C1171.67 3159.36 1124.48 2679.1 1136.58 2628.97C1148.69 2578.83 1102.81 2612.28 1102.81 2612.28Z" fill="#EFD7AD"/>
<path d="M1752.19 2967.07C1716.7 3286.61 1451.55 3687.7 1451.55 3687.7L1413.84 3639.69C1589.11 3443.4 1708.28 2958.89 1708.28 2958.89L1752.19 2967.07Z" fill="#EFD7AD"/>
<path d="M1526.46 3146.84C1526.46 3146.84 1488.68 3644.11 1413.59 3701.44C1338.51 3758.77 1470.03 3687.7 1470.03 3687.7C1470.03 3687.7 1593.28 3297.25 1572.34 3146.84H1526.46Z" fill="#EFD7AD"/>
<path d="M1482.87 2760.55C1482.87 2760.55 1486.79 3297.24 1413.84 3474.72C1340.89 3652.2 1413.84 3560.35 1413.84 3560.35C1413.84 3560.35 1558.03 3297.24 1528.34 2779.36L1482.87 2760.55Z" fill="#EFD7AD"/>
<path d="M1248.79 2507.92C1310.87 3559.62 1400.76 3545.71 1400.76 3545.71C1400.76 3545.71 1484.91 3752.47 1355.04 3642.39C1225.16 3532.3 1196.78 2495.32 1196.78 2495.32L1248.79 2507.92Z" fill="#EFD7AD"/>
<path d="M1349.23 2432.67C1349.23 2432.67 1297.7 3384.84 1385.38 3620.88C1470.76 3850.62 1407.62 3522.73 1407.62 3522.73C1407.62 3522.73 1353.4 2821.08 1407.62 2443.14L1349.23 2432.67Z" fill="#EFD7AD"/>
<path d="M1374.91 2338.79C1327.15 2329.14 1246.91 2387.86 1258.04 2443.15C1269.16 2498.44 1423.98 2480.03 1446.15 2456.4C1468.31 2432.76 1489.09 2361.77 1374.91 2338.79Z" fill="#F27779"/>
<path d="M1234.32 2301.16C1234.32 2301.16 1260.49 3230.43 1312.18 3334.79C1363.87 3439.15 1359.62 3299.29 1359.62 3299.29C1359.62 3299.29 1265.64 2526.65 1284.45 2292.82L1234.32 2301.16Z" fill="#EFD7AD"/>
<path d="M1442.22 2284.47C1442.22 2284.47 1449.17 2453.61 1413.84 2495.32C1378.51 2537.03 1501.6 2547.58 1482.87 2292.82L1442.22 2284.47Z" fill="#EFD7AD"/>
<path d="M1039.42 3002.08C1010.22 3012.14 969.655 3072.09 1023.06 3103.74C1076.47 3135.39 1137.56 3054.67 1123.33 3022.93C1109.1 2991.2 1083.99 2986.62 1039.42 3002.08Z" fill="#F27779"/>
<path d="M1111.8 2555.19C1072.63 2555.19 1031 2601.16 1060.93 2631.75C1090.86 2662.33 1184.27 2651.7 1185.66 2601.4C1187.05 2551.1 1143.86 2555.19 1111.8 2555.19Z" fill="#F27779"/>
<path d="M1196.78 2401.35C1140.84 2402.41 1066.41 2492.05 1118.18 2527.87C1169.95 2563.69 1309.24 2534.33 1312.18 2470.62C1315.13 2406.91 1234.32 2400.53 1196.78 2401.35Z" fill="#F27779"/>
<path d="M1234.32 2193.28C1188.68 2200.65 1095.28 2276.79 1159.16 2319.97C1223.03 2363.16 1348.49 2326.92 1345.71 2262.72C1342.93 2198.52 1285.84 2185.11 1234.32 2193.28Z" fill="#F27779"/>
<path d="M1177.23 2677.05C1141.08 2675.5 1090.95 2711.16 1090.95 2760.56C1090.95 2809.96 1243.31 2765.38 1241.6 2741.75C1239.88 2718.11 1225.98 2679.1 1177.23 2677.05Z" fill="#F27779"/>
<path d="M1382.11 2457.78C1333.04 2461.87 1238.49 2532.94 1280.28 2588.64C1322.08 2644.34 1507.16 2612.28 1507.16 2537.11C1507.16 2461.95 1416.54 2455 1382.11 2457.78Z" fill="#F27779"/>
<path d="M1476.57 2191.07C1423.66 2193.2 1337.53 2251.68 1370.74 2299.03C1403.94 2346.39 1547.89 2348.11 1583.39 2275.4C1601.87 2236.38 1530.88 2188.87 1476.57 2191.07Z" fill="#F27779"/>
<path d="M1507.16 2667.65C1465.45 2668.79 1373.36 2729.07 1413.84 2782.56C1454.33 2836.05 1594.92 2811.18 1608.17 2752.54C1621.42 2693.9 1557.3 2666.58 1507.16 2667.65Z" fill="#F27779"/>
<path d="M-212.645 3098.77C-212.645 3098.77 -177.102 3420.3 100.529 3406.98C372.394 3393.7 -79.9191 3494.12 -151.601 3098.77C-151.701 3098.77 -214.634 3085.2 -212.645 3098.77Z" fill="#F4D4AE"/>
<path d="M-31.5518 3066.71C-31.5518 3066.71 -29.8615 3383.07 144.422 3379.89C318.706 3376.71 80.147 3381.68 31.8785 3066.71H-31.5518Z" fill="#F4D4AE"/>
<path d="M51.3647 2806.03C51.3647 2806.03 117.38 2956.6 120.959 3071.68C124.538 3186.76 102.119 3378 151.183 3393.41C200.247 3408.82 213.818 3283.45 193.486 3031.27C173.155 2779.09 98.7385 2765.62 98.7385 2765.62L51.3647 2806.03Z" fill="#F4D4AE"/>
<path d="M-9.72949 3286.63C-9.72949 3286.63 34.264 3467.68 171.365 3427.06C308.465 3386.45 54.5955 3432.03 51.2152 3271.37C47.8349 3110.71 -9.72949 3286.63 -9.72949 3286.63Z" fill="#F4D4AE"/>
<path d="M308.416 2924.49C308.416 2924.49 140.843 3232.7 211.929 3379.74L132.392 3394.65C132.392 3394.65 96.8494 3105.74 247.471 2904.36L308.416 2924.49Z" fill="#F4D4AE"/>
<path d="M361.059 3159.77C361.059 3159.77 358.921 3271.67 202.583 3354.48C46.2445 3437.3 347.488 3477.91 425.334 3168.27L361.059 3159.77Z" fill="#F4D4AE"/>
<path d="M-86.7803 3034C-86.7803 3034 -101.445 3043.05 -94.3859 3055.08C-83.1514 3074.22 70.2043 3079.94 90.8838 3051.5C101.919 3036.59 83.1788 3023.22 83.1788 3023.22L-86.7803 3034Z" fill="#FCBE56"/>
<path d="M1.45596 3045.44C55.7395 3039.22 129.609 3028.93 124.538 2952.78C119.468 2876.62 58.573 2846.15 -34.0868 2865.19C-126.746 2884.23 -168.652 2937.32 -150.856 2989.46C-137.633 3028.53 -42.289 3050.41 1.45596 3045.44Z" fill="#FCBE56"/>
<path d="M204.423 2849.18C204.423 2849.18 187.223 2854.5 189.51 2869.91C193.089 2894.52 336.503 2949.45 366.527 2924.84C382.484 2911.82 369.609 2891.34 369.609 2891.34L204.423 2849.18Z" fill="#FCBE56"/>
<path d="M473.603 2830.99C479.916 2727.34 353.702 2702.73 296.884 2705.32C240.065 2707.9 152.724 2745.48 179.12 2821.94C205.516 2898.39 467.489 2934.68 473.603 2830.99Z" fill="#FCBE56"/>
<path d="M314.977 3125.47C314.977 3125.47 298.374 3135.41 305.93 3149.13C313.486 3162.85 471.713 3180.94 496.32 3149.13C509.394 3132.23 487.124 3117.36 487.124 3117.36L314.977 3125.47Z" fill="#FCBE56"/>
<path d="M396.154 3137.85C396.154 3137.85 228.531 3133.32 269.294 3050.56C310.056 2967.79 409.725 2976.39 433.884 2979.22C458.043 2982.06 530.521 2986.38 551.697 3049.17C572.874 3111.95 507.903 3142.32 396.154 3137.85Z" fill="#FCBE56"/>
<path d="M376.022 3333.76C421.457 3340.71 483.645 3348.67 494.581 3290.56C505.517 3232.45 461.971 3196.11 382.783 3190.74C303.595 3185.37 259.054 3216.04 263.13 3259.09C266.212 3291 339.485 3327.89 376.022 3333.76Z" fill="#FCBE56"/>
<path d="M-8.68552 2788.39C-8.68552 2788.39 -19.0749 2802.16 -8.18839 2810.81C9.21017 2824.63 154.264 2774.37 163.361 2740.52C168.332 2722.57 145.963 2717 145.963 2717L-8.68552 2788.39Z" fill="#FCBE56"/>
<path d="M-13.0596 2597.45C-15.4457 2598.59 -143.251 2666 -107.509 2748.47C-71.7673 2830.94 82.8811 2773.87 122.202 2738.53C161.523 2703.18 190.752 2653.47 156.502 2607.79C122.252 2562.1 43.5105 2569.51 -13.0596 2597.45Z" fill="#FCBE56"/>
<path d="M22.9806 3262.47C60.6609 3252.13 111.713 3236.77 99.932 3186.96C88.1507 3137.15 41.8208 3124.03 -21.5596 3147.19C-84.9401 3170.36 -108.751 3210.43 -90.5574 3242.99C-77.0362 3267.29 -7.34258 3270.82 22.9806 3262.47Z" fill="#FCBE56"/>
</svg>
