<svg width="1440" height="3200" viewBox="0 0 1440 3200" fill="none" xmlns="http://www.w3.org/2000/svg">
<path d="M1273.12 882.558C912.143 1106.29 192.342 1643.02 216.767 2352.47C249.839 3296.23 183.479 3428.74 -48.2405 3478.24C-48.2405 3478.24 -313.249 3577.68 -396.037 3064.51C-477.744 2556.09 -996.52 1369.79 -1552.47 1214.15C-1770.58 1342.12 -1844.72 1409.35 -1986.3 1242.9C-2168.3 1026.74 -1804.08 564.15 -1324 497.788C-843.913 431.426 -529.189 646.94 -280.825 166.626C-32.4612 -313.688 563.483 50.7625 713.495 166.626C821.573 250.497 1293.01 1.04502 1491.66 464.715C1644.48 822.897 1591.74 1038.41 1273.12 882.558Z" fill="#8B78B6"/>
</svg>
